#!OML:ASF H:\Dans Jumps\Project 1\Capture day 1\Session 1\subject.ASF
:FULLY-SPECIFIED
:DEGREES
162
root 0.00618786 16.5436 -15.384 13.8767 -1.66644 -2.0628
lowerback 14.5878 -0.17179 0.271571
upperback 8.97666 -0.195795 1.74476
thorax 1.30645 -0.140285 1.69464
lowerneck -15.2487 1.08076 -0.909053
upperneck 27.2276 1.92461 -0.556154
head 11.367 0.694266 0.22118
rclavicle -1.88845e-015 1.73937e-014
rhumerus -36.6038 -15.8066 -72.263
rradius 25.7497
rwrist 29.3888
rhand -20.1166 -25.0009
rfingers 7.12502
rthumb 6.22729 -54.8894
lclavicle -1.88845e-015 1.73937e-014
lhumerus -32.0991 -0.309181 84.0791
lradius 20.604
lwrist 15.815
lhand -28.7713 -6.43233
lfingers 7.12502
lthumb -2.13087 23.5368
rfemur -43.0792 -2.9785 20.4097
rtibia 49.4002
rfoot -18.9485 -1.68335
rtoes 4.1819
lfemur -42.5472 8.30934 -19.7937
ltibia 49.1993
lfoot -17.8474 7.83183
ltoes 0.599106
163
root 0.0105361 16.5157 -15.41 14.0828 -1.6677 -2.03283
lowerback 14.8319 -0.166193 0.266361
upperback 9.03447 -0.186975 1.75097
thorax 1.23939 -0.136464 1.70443
lowerneck -15.3225 1.08937 -0.896035
upperneck 26.8548 1.95009 -0.629465
head 11.2408 0.701621 0.1949
rclavicle -7.55382e-015 5.26779e-015
rhumerus -36.8456 -15.9074 -72.0555
rradius 25.6751
rwrist 29.5638
rhand -19.9972 -25.0251
rfingers 7.12502
rthumb 6.34256 -54.9101
lclavicle -7.55382e-015 5.26779e-015
lhumerus -32.2891 -0.193867 83.953
lradius 20.4957
lwrist 15.7608
lhand -28.687 -6.31435
lfingers 7.12502
lthumb -2.04937 23.6556
rfemur -43.695 -3.00263 20.3855
rtibia 49.8991
rfoot -19.0474 -1.71712
rtoes 4.02276
lfemur -43.1585 8.27583 -19.8862
ltibia 49.6934
lfoot -17.9286 7.90318
ltoes 0.555365
164
root 0.0149746 16.4863 -15.4369 14.294 -1.66823 -1.99625
lowerback 15.0867 -0.159977 0.25735
upperback 9.09553 -0.177746 1.75634
thorax 1.17044 -0.132577 1.71547
lowerneck -15.3903 1.0984 -0.883278
upperneck 26.4591 1.97604 -0.705295
head 11.1057 0.709227 0.16787
rclavicle -1.59028e-015 -4.47266e-015
rhumerus -37.1107 -16.0066 -71.8383
rradius 25.6077
rwrist 29.7364
rhand -19.8869 -25.0514
rfingers 7.12502
rthumb 6.44897 -54.9332
lclavicle -1.59028e-015 -4.47266e-015
lhumerus -32.495 -0.071337 83.8243
lradius 20.3804
lwrist 15.7155
lhand -28.6029 -6.2197
lfingers 7.12502
lthumb -1.96821 23.751
rfemur -44.331 -3.02744 20.3539
rtibia 50.4145
rfoot -19.1496 -1.75623
rtoes 3.86083
lfemur -43.789 8.23617 -19.9871
ltibia 50.2023
lfoot -18.0091 7.98168
ltoes 0.500492
165
root 0.0194597 16.4555 -15.4645 14.5079 -1.66743 -1.95731
lowerback 15.3473 -0.153999 0.248051
upperback 9.16467 -0.168981 1.76114
thorax 1.10741 -0.128978 1.72616
lowerneck -15.4602 1.10841 -0.865939
upperneck 26.0463 2.00329 -0.78803
head 10.9658 0.717316 0.137892
rclavicle -6.95746e-015 9.74045e-015
rhumerus -37.3839 -16.1284 -71.6072
rradius 25.5328
rwrist 29.9201
rhand -19.8032 -25.0812
rfingers 7.12502
rthumb 6.52982 -54.9605
lclavicle -6.95746e-015 9.74045e-015
lhumerus -32.7123 0.0594503 83.692
lradius 20.261
lwrist 15.6769
lhand -28.5294 -6.15188
lfingers 7.12502
lthumb -1.8972 23.8194
rfemur -44.9821 -3.05071 20.3189
rtibia 50.9458
rfoot -19.2582 -1.80115
rtoes 3.70513
lfemur -44.4348 8.19216 -20.0909
ltibia 50.7264
lfoot -18.0912 8.06384
ltoes 0.446109
166
root 0.024079 16.4234 -15.4928 14.7212 -1.66707 -1.91675
lowerback 15.6195 -0.148266 0.240163
upperback 9.24002 -0.160392 1.76442
thorax 1.04528 -0.125415 1.73453
lowerneck -15.5315 1.11465 -0.857164
upperneck 25.6231 2.02464 -0.862636
head 10.823 0.723123 0.111666
rclavicle 5.96354e-015 -2.16675e-014
rhumerus -37.6718 -16.2676 -71.3603
rradius 25.4488
rwrist 30.1043
rhand -19.7326 -25.1031
rfingers 7.12502
rthumb 6.59799 -54.9803
lclavicle 5.96354e-015 -2.16675e-014
lhumerus -32.9424 0.194287 83.5561
lradius 20.1382
lwrist 15.65
lhand -28.4631 -6.11672
lfingers 7.12502
lthumb -1.83318 23.8552
rfemur -45.6445 -3.07133 20.2804
rtibia 51.4918
rfoot -19.3694 -1.84806
rtoes 3.55801
lfemur -45.0908 8.14444 -20.1966
ltibia 51.2639
lfoot -18.1746 8.15007
ltoes 0.394997
167
root 0.0286879 16.3901 -15.5219 14.934 -1.66271 -1.87512
lowerback 15.9077 -0.144215 0.233192
upperback 9.31569 -0.153706 1.76772
thorax 0.97557 -0.122745 1.74276
lowerneck -15.609 1.11916 -0.851255
upperneck 25.204 2.0431 -0.933952
head 10.684 0.727787 0.0869471
rclavicle -3.97569e-016 -1.27222e-014
rhumerus -37.9838 -16.4322 -71.0842
rradius 25.3471
rwrist 30.3109
rhand -19.6854 -25.1036
rfingers 7.12502
rthumb 6.64355 -54.9794
lclavicle -3.97569e-016 -1.27222e-014
lhumerus -33.1942 0.325288 83.4217
lradius 20.0097
lwrist 15.6436
lhand -28.4533 -6.14831
lfingers 7.12502
lthumb -1.82368 23.8236
rfemur -46.3158 -3.09044 20.2393
rtibia 52.0509
rfoot -19.4841 -1.89825
rtoes 3.4262
lfemur -45.7567 8.09001 -20.3016
ltibia 51.8131
lfoot -18.2594 8.23723
ltoes 0.355796
